<svg width="581" height="1057" viewBox="0 0 581 1057" fill="none" xmlns="http://www.w3.org/2000/svg">
<g clip-path="url(#clip0_15_28)">
<g opacity="0.4">
<path d="M-108 535.016L291.016 136L690.032 535.016L291.016 934.032L-108 535.016Z" fill="#D9D9D9" fill-opacity="0.2"/>
<path d="M-108 636.016L291.016 237L690.032 636.016L291.016 1035.03L-108 636.016Z" fill="black"/>
<path d="M-108 758.016L291.016 359L690.032 758.016L291.016 1157.03L-108 758.016Z" fill="#609EA9"/>
<path d="M-108 934.016L291.016 535L690.032 934.016L291.016 1333.03L-108 934.016Z" fill="#D9D9D9"/>
<path d="M-108 1011.02L291.016 612L690.032 1011.02L291.016 1410.03L-108 1011.02Z" fill="#523F79"/>
<path d="M291.016 0L-108 399.016L-34 473.016L291.016 148L616.032 473.016L690.032 399.016L291.016 0Z" fill="#D9D9D9"/>
</g>
</g>
<defs>
<clipPath id="clip0_15_28">
<rect width="581" height="1057" fill="white"/>
</clipPath>
</defs>
</svg>
